<svg xmlns="http://www.w3.org/2000/svg" width="24" height="24" viewBox="0 0 24 24">
    <path d="M6.00892 20.539L4.85857 19.7263L5.33359 19.3923L5.80113 19.0546C5.8956 18.9924 5.99484 18.9378 6.09803 18.8914C6.16195 18.8604 6.22913 18.8367 6.29843 18.8209C6.36006 18.8149 6.42222 18.8149 6.48395 18.8209L6.48395 18.7393L5.33729 18.7393L5.33729 18.8023L5.40782 18.8023C5.46355 18.7975 5.51964 18.8064 5.57106 18.8283C5.60443 18.8505 5.62301 18.8728 5.62301 18.8951C5.6164 18.9397 5.59404 18.9805 5.55996 19.0102C5.30057 19.23 5.02384 19.4286 4.73239 19.6039L4.417 19.8117L4.417 19.1474C4.41172 19.0744 4.42185 19.0011 4.44668 18.9322C4.46631 18.8937 4.50144 18.8653 4.54318 18.8542C4.6108 18.8291 4.68256 18.8165 4.75467 18.8172L4.85857 18.8172L4.85857 18.7393L3.52269 18.7393L3.52269 18.8023L3.63029 18.8023C3.70372 18.8017 3.77663 18.8143 3.84557 18.8395C3.88237 18.854 3.91451 18.8784 3.93828 18.91C3.96294 18.9815 3.97306 19.0571 3.96804 19.1326L3.96804 20.5649C3.9794 20.6518 3.95968 20.7399 3.91231 20.8136C3.83201 20.8755 3.73128 20.9046 3.63029 20.8952L3.52269 20.8952L3.52269 20.9546L4.85857 20.9546L4.85857 20.8952L4.75467 20.8952C4.68212 20.8968 4.61001 20.8829 4.54318 20.8544C4.50452 20.8434 4.47063 20.8199 4.44668 20.7876C4.42211 20.7161 4.41199 20.6404 4.417 20.5649L4.417 19.8488L5.49313 20.5909C5.54552 20.6238 5.59404 20.6623 5.63789 20.706C5.65241 20.7266 5.66016 20.7513 5.66016 20.7764C5.66016 20.8024 5.66016 20.8284 5.60073 20.847C5.54006 20.8736 5.47385 20.8851 5.40782 20.8803L5.40782 20.9398L6.89214 20.9398L6.89214 20.8803C6.75593 20.878 6.62086 20.8555 6.49134 20.8136C6.31956 20.7429 6.15746 20.6506 6.00892 20.539Z" />
    <path d="M8.68816 20.7802C8.66755 20.786 8.64563 20.786 8.62502 20.7802C8.60425 20.7654 8.59069 20.7424 8.58796 20.7171C8.58126 20.6294 8.58126 20.5413 8.58796 20.4536L8.58796 19.9267C8.59509 19.8296 8.58118 19.7322 8.5471 19.641C8.49982 19.5671 8.42929 19.511 8.3467 19.4814C8.19834 19.4328 8.04267 19.4102 7.88665 19.4146C7.68916 19.4049 7.49246 19.4458 7.31513 19.5334C7.18156 19.6125 7.11473 19.6978 7.11473 19.7894C7.11297 19.8348 7.13207 19.8786 7.16668 19.9082C7.20841 19.9358 7.25763 19.9501 7.30773 19.949C7.35809 19.9526 7.4081 19.9381 7.44869 19.9082C7.48559 19.8818 7.50654 19.8385 7.50443 19.7931L7.50443 19.6966C7.50742 19.6421 7.54027 19.5936 7.58975 19.5704C7.6594 19.53 7.73934 19.5106 7.81982 19.5148C7.92381 19.5091 8.02682 19.5379 8.11293 19.5964C8.18769 19.6806 8.22282 19.7927 8.20944 19.9044L8.20944 19.9638C7.94643 20.0273 7.68739 20.1066 7.4339 20.2013C7.31063 20.2466 7.19908 20.3189 7.10733 20.4128C7.05996 20.4642 7.03469 20.5322 7.0368 20.6021C7.03495 20.7124 7.0877 20.8166 7.17786 20.8803C7.28607 20.9566 7.41673 20.9945 7.54889 20.988C7.6395 20.988 7.72966 20.9742 7.81612 20.9472C7.95489 20.886 8.08995 20.8165 8.22062 20.7394C8.21622 20.8095 8.24184 20.8783 8.29106 20.9286C8.34195 20.9677 8.40508 20.9874 8.46918 20.9843C8.65901 20.969 8.83573 20.8813 8.96269 20.7394L8.96269 20.6503C8.90343 20.6938 8.84145 20.7334 8.77717 20.769C8.749 20.7805 8.71827 20.7843 8.68816 20.7802ZM8.19464 20.6318C8.05694 20.723 7.89889 20.7791 7.7345 20.795C7.65244 20.7947 7.57284 20.7674 7.50813 20.7171C7.44491 20.6716 7.40758 20.5983 7.40793 20.5204C7.4089 20.4544 7.43875 20.392 7.48955 20.3497C7.56527 20.2824 7.6535 20.2307 7.74929 20.1976C7.81612 20.1716 7.96457 20.1271 8.19464 20.0602L8.19464 20.6318Z" />
    <path d="M12.3025 20.8099C12.2782 20.7486 12.268 20.6827 12.2728 20.6169L12.2728 19.9749C12.2797 19.8736 12.2632 19.772 12.2245 19.6781C12.1789 19.5904 12.106 19.5201 12.0167 19.4777C11.9237 19.4347 11.8222 19.4133 11.7198 19.4146C11.6056 19.415 11.4924 19.4364 11.3859 19.4777C11.2392 19.5406 11.1038 19.627 10.9851 19.7338C10.954 19.6326 10.8848 19.5474 10.7922 19.4962C10.6872 19.4402 10.5697 19.4121 10.4508 19.4146C10.3705 19.415 10.2906 19.4263 10.2132 19.448C10.1352 19.4722 10.0605 19.5058 9.99066 19.5482L9.71973 19.7338L9.71973 19.4146L9.61953 19.4146L8.98497 19.5964L9.02212 19.6558C9.0717 19.6422 9.12285 19.6347 9.17427 19.6336C9.20474 19.6264 9.23652 19.6264 9.26699 19.6336C9.29323 19.6507 9.3118 19.6773 9.31894 19.7078C9.33857 19.8129 9.34606 19.92 9.34121 20.0269L9.34121 20.6318C9.3457 20.6962 9.33558 20.7609 9.31154 20.821C9.28882 20.8522 9.25801 20.8765 9.22252 20.8915C9.15701 20.908 9.08957 20.9155 9.02212 20.9138L9.02212 20.9694L10.0611 20.9694L10.0611 20.9138C9.98502 20.9163 9.90895 20.9089 9.83481 20.8915C9.79995 20.8788 9.7701 20.8555 9.74941 20.8247C9.72431 20.7637 9.71419 20.6975 9.71973 20.6318L9.71973 19.8154C9.80708 19.745 9.9064 19.691 10.0128 19.6558C10.0917 19.6234 10.1763 19.6071 10.2615 19.6076C10.3659 19.6009 10.4684 19.6386 10.5435 19.7115C10.6022 19.7861 10.6302 19.8804 10.6214 19.9749L10.6214 20.6318C10.6291 20.6859 10.6291 20.7409 10.6214 20.795C10.6039 20.8348 10.5721 20.8665 10.5324 20.8841C10.4544 20.9082 10.3727 20.9183 10.2912 20.9138L10.2912 20.9694L11.3562 20.9694L11.3562 20.9138C11.2799 20.9165 11.2035 20.9078 11.1298 20.8878C11.0943 20.8745 11.0625 20.8529 11.037 20.8247C11.0169 20.7625 11.0093 20.6969 11.0148 20.6318L11.0148 19.8154C11.1061 19.749 11.206 19.6954 11.3117 19.6558C11.39 19.6267 11.473 19.6116 11.5566 19.6113C11.6636 19.6024 11.7691 19.6403 11.846 19.7152C11.8945 19.7927 11.9167 19.8838 11.9091 19.9749L11.9091 20.6318C11.916 20.6847 11.916 20.7383 11.9091 20.7913C11.8958 20.8271 11.8692 20.8563 11.8349 20.8729C11.7672 20.9029 11.6936 20.9169 11.6196 20.9138L11.5789 20.9138L11.5789 20.9694L12.6179 20.9694L12.6179 20.9138C12.5489 20.9157 12.4801 20.907 12.4138 20.8878C12.3686 20.8758 12.3291 20.8483 12.3025 20.8099Z" />
    <path d="M13.6161 18.9174C13.6348 18.8642 13.6734 18.8203 13.7237 18.7949C13.7787 18.7666 13.84 18.7526 13.9018 18.7541C13.9564 18.754 14.0105 18.764 14.0613 18.7838C14.12 18.8154 14.1726 18.8568 14.2173 18.9062C14.2578 18.9534 14.3069 18.9924 14.3619 19.0213C14.3964 19.0386 14.4347 19.0475 14.4733 19.0472C14.5192 19.0473 14.5637 19.0316 14.5994 19.0027C14.6345 18.9861 14.6585 18.9523 14.6625 18.9137C14.6625 18.8518 14.618 18.7961 14.529 18.7466C14.3923 18.6725 14.2391 18.6342 14.0836 18.6354C13.9226 18.6333 13.7631 18.6663 13.6161 18.7319C13.4902 18.7845 13.3821 18.8721 13.3044 18.9842C13.2353 19.0953 13.2005 19.2244 13.2042 19.3552L13.2042 19.4517L12.7997 19.4517L12.7997 19.5704L13.2079 19.5704L13.2079 20.5538C13.2147 20.6269 13.2046 20.7005 13.1782 20.769C13.1556 20.8104 13.1187 20.8421 13.0743 20.8581C13.0216 20.8809 12.9647 20.8922 12.9073 20.8915L12.7997 20.8915L12.7997 20.9472L14.0613 20.9472L14.0613 20.8915L13.8758 20.8915C13.7938 20.8955 13.7133 20.869 13.6494 20.8173C13.605 20.7802 13.5827 20.6911 13.5827 20.5538L13.5827 19.5779L14.1282 19.5779L14.1282 19.4591L13.5827 19.4591L13.5827 19.3515C13.5741 19.206 13.5853 19.0599 13.6161 18.9174Z" />
    <path d="M15.3601 19.4146C15.1897 19.4143 15.0209 19.4471 14.8629 19.5111C14.7141 19.5756 14.5858 19.6795 14.4918 19.8117C14.4016 19.9305 14.351 20.0745 14.3471 20.2236C14.3525 20.4186 14.4385 20.6026 14.5846 20.732C14.7879 20.9144 15.0537 21.0114 15.3268 21.0028C15.5088 21.0042 15.6893 20.9689 15.8574 20.8989C16.009 20.8338 16.1381 20.7254 16.2285 20.5872C16.3136 20.4677 16.3613 20.3257 16.3657 20.179C16.3688 19.9856 16.2859 19.8008 16.1394 19.6743C15.9222 19.4916 15.6435 19.3987 15.3601 19.4146ZM15.8017 20.7542C15.6998 20.8444 15.5666 20.8911 15.4307 20.8841C15.2414 20.8891 15.0615 20.802 14.9482 20.6503C14.8259 20.4882 14.7618 20.2894 14.7664 20.0863C14.7624 19.9704 14.788 19.8555 14.8406 19.7523C14.8862 19.6726 14.9565 19.6101 15.041 19.5742C15.2627 19.4778 15.5201 19.5183 15.7015 19.6781C15.8686 19.8425 15.9566 20.0712 15.9427 20.3052C15.961 20.468 15.9098 20.6311 15.8017 20.7542Z" />
    <path d="M18.0542 19.4702C17.9919 19.4316 17.9196 19.4122 17.8464 19.4146C17.6226 19.4355 17.4218 19.5606 17.3046 19.7523L17.3046 19.4146L17.2081 19.4146L16.5698 19.5964L16.5921 19.6558C16.6442 19.6421 16.6978 19.6346 16.7517 19.6336C16.7864 19.6322 16.8209 19.6398 16.8519 19.6558C16.8798 19.6701 16.9002 19.6958 16.9075 19.7263C16.9175 19.83 16.9175 19.9343 16.9075 20.0381L16.9075 20.6318C16.9143 20.6835 16.9143 20.7358 16.9075 20.7876C16.8941 20.8266 16.8643 20.8578 16.8259 20.8729C16.7499 20.9007 16.6692 20.9133 16.5884 20.9101L16.5884 20.9657L17.6682 20.9657L17.6682 20.9101C17.5941 20.9126 17.5201 20.9025 17.4493 20.8803C17.4074 20.8657 17.3703 20.8401 17.3417 20.8062C17.3101 20.7483 17.296 20.6826 17.3009 20.6169L17.3009 19.8896C17.3567 19.8027 17.4285 19.7272 17.5124 19.6669C17.5392 19.6499 17.5698 19.6396 17.6015 19.6373C17.6543 19.6449 17.705 19.6638 17.7499 19.6929C17.8046 19.727 17.8673 19.7462 17.9317 19.7486C17.9835 19.7497 18.0343 19.734 18.0764 19.7041C18.1125 19.68 18.1347 19.6398 18.1358 19.5964C18.132 19.5431 18.1012 19.4956 18.0542 19.4702Z" />
    <path d="M20.4514 20.7579C20.3976 20.7764 20.3412 20.7865 20.2843 20.7876C20.2543 20.7888 20.2246 20.781 20.199 20.7653C20.1701 20.7468 20.1501 20.7174 20.1434 20.6837C20.1327 20.5776 20.1327 20.4707 20.1434 20.3645L20.1434 18.6317L20.0395 18.6317L19.4123 18.8172L19.442 18.8728C19.4938 18.8571 19.5475 18.8483 19.6016 18.8468C19.6328 18.8454 19.6638 18.8531 19.6906 18.8691C19.7187 18.8867 19.7387 18.9147 19.7463 18.947C19.7566 19.0519 19.7566 19.1576 19.7463 19.2624L19.7463 19.5408C19.6098 19.4519 19.4489 19.4078 19.2861 19.4146C19.0131 19.4015 18.746 19.4976 18.544 19.6818C18.3731 19.8264 18.2719 20.0369 18.2656 20.2606C18.2619 20.4661 18.3571 20.6609 18.5217 20.7839C18.6933 20.921 18.907 20.9944 19.1266 20.9917C19.2339 20.992 19.3405 20.9745 19.442 20.9398C19.5517 20.9023 19.6544 20.847 19.7463 20.7764L19.7463 21.0028L19.8502 21.0028L20.4773 20.8173L20.4514 20.7579ZM19.7463 20.6725C19.6306 20.7661 19.4869 20.8183 19.3381 20.821C19.1698 20.8175 19.0092 20.7498 18.8891 20.6318C18.7478 20.5034 18.6727 20.3176 18.685 20.1271C18.6723 19.9371 18.7508 19.7524 18.8965 19.6299C19.0003 19.5429 19.1322 19.4966 19.2676 19.5C19.3443 19.5003 19.4202 19.5167 19.4902 19.5482C19.563 19.5752 19.6262 19.623 19.672 19.6855C19.7177 19.7436 19.7472 19.8127 19.7575 19.8859L19.7463 20.6725Z" />
    <path fill="red" d="M16.805 10.8179C16.3514 11.2705 15.8808 12.024 16.2692 12.8458L19.3213 17.9634L20.9963 17.9634L16.805 10.8179ZM15.2613 8.19199L16.0756 9.58853L14.6539 12.2052L18.0505 17.9634L16.305 17.9634L12.9308 12.2321L15.2613 8.19199ZM3.7179 16.7855L10.5453 16.7855C11.3779 16.9029 11.7497 17.4558 11.8694 17.9634L3.0037 17.9731L3.7179 16.7855ZM5.29282 14.237L4.47758 15.5627L11.8596 15.5627L13.2814 17.9634L14.8247 17.9634L12.6385 14.2386L5.29282 14.237ZM6.87286 11.6673L10.0007 11.6673L13.7349 5.59456L14.5689 7.00747L10.8741 13.0161L6.04749 13.0097L6.87286 11.6673ZM12.2118 2.99806C12.2118 2.87992 7.67049 10.2847 7.67049 10.2847C8.42947 10.5096 9.22833 10.5412 9.79563 9.59293L13.0375 4.30007L12.2118 2.99806Z"/>
</svg>
