<svg xmlns="http://www.w3.org/2000/svg" fill="red" viewBox="0 0 108 108">
    <path d="M32.6897 84.3732L28.5978 81.4825L30.2875 80.2946L31.9505 79.0935C32.2866 78.872 32.6395 78.6779 33.0066 78.5128C33.234 78.4026 33.4729 78.3183 33.7194 78.2619C33.9387 78.2406 34.1598 78.2406 34.3793 78.2619L34.3793 77.9716L30.3006 77.9716L30.3006 78.1959L30.5515 78.1959C30.7497 78.1786 30.9493 78.2106 31.1322 78.2883C31.2509 78.3675 31.3169 78.4467 31.3169 78.526C31.2934 78.6848 31.2139 78.8298 31.0927 78.9353C30.17 79.7173 29.1857 80.4236 28.149 81.0471L27.0272 81.7863L27.0272 79.4236C27.0084 79.1636 27.0444 78.903 27.1327 78.6578C27.2026 78.521 27.3275 78.4201 27.476 78.3806C27.7165 78.2911 27.9718 78.2463 28.2283 78.2488L28.5978 78.2488L28.5978 77.9716L23.8461 77.9716L23.8461 78.1959L24.2288 78.1959C24.49 78.1937 24.7493 78.2385 24.9946 78.328C25.1255 78.3797 25.2398 78.4665 25.3244 78.5789C25.412 78.8332 25.4481 79.1022 25.4302 79.3706L25.4302 84.4656C25.4706 84.7747 25.4005 85.0879 25.232 85.3501C24.9463 85.5702 24.588 85.6739 24.2288 85.6404L23.8461 85.6404L23.8461 85.8515L28.5978 85.8515L28.5978 85.6404L28.2283 85.6404C27.9702 85.646 27.7137 85.5965 27.476 85.4951C27.3385 85.4562 27.2179 85.3726 27.1327 85.2577C27.0453 85.0034 27.0093 84.734 27.0272 84.4656L27.0272 81.9181L30.855 84.558C31.0413 84.6748 31.2139 84.812 31.3699 84.9674C31.4215 85.0406 31.4491 85.1283 31.4491 85.2179C31.4491 85.3103 31.4491 85.4027 31.2377 85.4688C31.0219 85.5637 30.7864 85.6044 30.5515 85.5875L30.5515 85.7989L35.8313 85.7989L35.8313 85.5875C35.3468 85.5793 34.8663 85.4991 34.4056 85.3501C33.7946 85.0986 33.218 84.7704 32.6897 84.3732Z" />
    <path d="M42.2197 85.2314C42.1464 85.252 42.0684 85.252 41.9952 85.2314C41.9212 85.1788 41.873 85.097 41.8633 85.0068C41.8395 84.6949 41.8395 84.3817 41.8633 84.0697L41.8633 82.1953C41.8887 81.8502 41.8392 81.5035 41.718 81.179C41.5498 80.9162 41.2989 80.7167 41.0052 80.6115C40.4774 80.4386 39.9237 80.3581 39.3687 80.3738C38.6663 80.3393 37.9666 80.4847 37.3358 80.7963C36.8607 81.0778 36.623 81.3813 36.623 81.707C36.6167 81.8686 36.6847 82.0243 36.8078 82.1295C36.9562 82.2279 37.1313 82.2786 37.3095 82.2745C37.4887 82.2877 37.6666 82.236 37.8109 82.1295C37.9422 82.0356 38.0167 81.8815 38.0092 81.7202L38.0092 81.3769C38.0198 81.1831 38.1367 81.0105 38.3127 80.9281C38.5604 80.7844 38.8448 80.7155 39.131 80.7302C39.5009 80.7102 39.8673 80.8123 40.1736 81.0205C40.4395 81.3199 40.5645 81.7186 40.5169 82.1161L40.5169 82.3275C39.5814 82.5533 38.66 82.8355 37.7583 83.1721C37.3199 83.3334 36.923 83.5906 36.5967 83.9244C36.4282 84.1073 36.3383 84.3491 36.3458 84.5978C36.3393 84.9902 36.5269 85.3607 36.8476 85.5875C37.2325 85.8587 37.6973 85.9937 38.1673 85.9705C38.4896 85.9705 38.8103 85.9213 39.1179 85.8252C39.6115 85.6075 40.0919 85.3604 40.5567 85.086C40.541 85.3357 40.6322 85.5803 40.8072 85.7591C40.9883 85.8982 41.2128 85.9683 41.4408 85.9573C42.1161 85.9029 42.7446 85.5909 43.1962 85.086L43.1962 84.7694C42.9855 84.9238 42.765 85.0648 42.5364 85.1916C42.4361 85.2323 42.3268 85.2458 42.2197 85.2314ZM40.4643 84.7033C39.9745 85.0278 39.4123 85.2273 38.8276 85.284C38.5357 85.283 38.2525 85.1856 38.0223 85.0068C37.7975 84.8449 37.6647 84.5843 37.6659 84.3071C37.6694 84.0723 37.7755 83.8505 37.9563 83.7002C38.2256 83.4606 38.5394 83.2767 38.8802 83.159C39.1179 83.0666 39.6459 82.9081 40.4643 82.6704L40.4643 84.7033Z" />
    <path d="M55.0759 85.3369C54.9894 85.1189 54.9534 84.8844 54.9703 84.6504L54.9703 82.3669C54.9951 82.0064 54.9362 81.645 54.7987 81.3112C54.6365 80.9992 54.3771 80.749 54.0596 80.5983C53.7285 80.4455 53.3677 80.3691 53.0035 80.3738C52.5973 80.3754 52.1945 80.4515 51.8156 80.5983C51.2938 80.822 50.8121 81.1295 50.3899 81.5091C50.2794 81.1492 50.0332 80.8461 49.7037 80.6641C49.3304 80.4649 48.9123 80.365 48.4895 80.3738C48.2038 80.3754 47.9195 80.4154 47.6445 80.4928C47.367 80.5786 47.1011 80.6983 46.8527 80.8492L45.8891 81.5091L45.8891 80.3738L45.5326 80.3738L43.2755 81.0205L43.4077 81.2319C43.584 81.1834 43.7659 81.1568 43.9488 81.1527C44.0572 81.1273 44.1703 81.1273 44.2786 81.1527C44.372 81.2138 44.438 81.3083 44.4634 81.4167C44.5333 81.7907 44.5599 82.1715 44.5427 82.5517L44.5427 84.7033C44.5586 84.9326 44.5226 85.1628 44.4371 85.3764C44.3563 85.4872 44.2467 85.574 44.1205 85.6272C43.8875 85.6858 43.6476 85.7124 43.4077 85.7065L43.4077 85.9044L47.1033 85.9044L47.1033 85.7065C46.8327 85.7156 46.5621 85.6889 46.2984 85.6272C46.1744 85.5821 46.0682 85.4991 45.9946 85.3895C45.9053 85.1725 45.8693 84.9373 45.8891 84.7033L45.8891 81.7994C46.1997 81.5492 46.553 81.3569 46.9317 81.2319C47.2123 81.1167 47.513 81.0584 47.8161 81.0603C48.1876 81.0365 48.5521 81.1705 48.8193 81.4299C49.0282 81.6951 49.1274 82.0306 49.0964 82.3669L49.0964 84.7033C49.1237 84.8959 49.1237 85.0914 49.0964 85.284C49.0341 85.4255 48.9211 85.5383 48.7798 85.6009C48.5023 85.6867 48.2117 85.7225 47.9217 85.7065L47.9217 85.9044L51.71 85.9044L51.71 85.7065C51.4385 85.7162 51.1669 85.6852 50.9048 85.6141C50.7786 85.5668 50.6652 85.4898 50.5747 85.3895C50.503 85.1684 50.476 84.9351 50.4958 84.7033L50.4958 81.7994C50.8202 81.5633 51.1757 81.3726 51.5515 81.2319C51.8303 81.1283 52.1253 81.0747 52.4228 81.0735C52.8034 81.0418 53.1786 81.1768 53.4523 81.443C53.6249 81.7186 53.7038 82.0428 53.6765 82.3669L53.6765 84.7033C53.7013 84.8916 53.7013 85.0823 53.6765 85.2708C53.6292 85.398 53.5347 85.502 53.4128 85.5612C53.172 85.6676 52.9102 85.7174 52.6471 85.7065L52.5021 85.7065L52.5021 85.9044L56.1977 85.9044L56.1977 85.7065C55.9525 85.7134 55.7076 85.6824 55.4717 85.6141C55.3111 85.5715 55.1708 85.4735 55.0759 85.3369Z" />
    <path d="M59.7484 78.6052C59.8151 78.416 59.9522 78.2601 60.1311 78.1696C60.3268 78.069 60.5448 78.0192 60.7647 78.0245C60.9588 78.0239 61.1515 78.0596 61.3322 78.1301C61.5407 78.2425 61.728 78.3897 61.8868 78.5654C62.0309 78.7333 62.2057 78.872 62.4014 78.9748C62.5242 79.0365 62.6601 79.0681 62.7976 79.0672C62.9608 79.0675 63.1192 79.0114 63.2461 78.9087C63.371 78.8495 63.4562 78.7295 63.4706 78.592C63.4706 78.3719 63.3122 78.1739 62.9955 77.9979C62.5094 77.7342 61.9645 77.598 61.4114 77.6021C60.8389 77.5948 60.2714 77.712 59.7484 77.9453C59.3008 78.1326 58.9162 78.4442 58.6397 78.8429C58.3941 79.2382 58.2701 79.6973 58.2833 80.1627L58.2833 80.506L56.8445 80.506L56.8445 80.9281L58.2964 80.9281L58.2964 84.4262C58.3208 84.6861 58.2848 84.9479 58.1909 85.1916C58.1104 85.3388 57.9791 85.4515 57.8213 85.5085C57.6337 85.5893 57.4314 85.6297 57.2272 85.6272L56.8445 85.6272L56.8445 85.8252L61.3322 85.8252L61.3322 85.6272L60.6723 85.6272C60.3807 85.6413 60.0941 85.5471 59.8671 85.3632C59.7089 85.2314 59.6297 84.9144 59.6297 84.4262L59.6297 80.9548L61.5699 80.9548L61.5699 80.5323L59.6297 80.5323L59.6297 80.1495C59.599 79.6318 59.6391 79.1123 59.7484 78.6052Z" />
    <path d="M65.952 80.3738C65.3457 80.3728 64.7453 80.4894 64.1834 80.717C63.6542 80.9466 63.1978 81.3162 62.8634 81.7863C62.5426 82.2088 62.3626 82.7211 62.3488 83.2514C62.3679 83.9451 62.6739 84.5997 63.1935 85.0597C63.9166 85.7087 64.8621 86.0538 65.8333 86.0231C66.481 86.0281 67.1227 85.9025 67.7209 85.6536C68.2602 85.4221 68.7194 85.0363 69.0407 84.5449C69.3436 84.1199 69.5133 83.6147 69.529 83.0929C69.5399 82.4048 69.2449 81.7474 68.7241 81.2977C67.9514 80.6478 66.9599 80.3174 65.952 80.3738ZM67.5227 85.139C67.1603 85.4597 66.6865 85.6257 66.2029 85.6009C65.5299 85.6188 64.8897 85.3087 64.4869 84.7694C64.0516 84.1925 63.8236 83.4856 63.8402 82.7631C63.8258 82.351 63.9169 81.9422 64.1042 81.5749C64.2661 81.2914 64.5164 81.0691 64.817 80.9416C65.6056 80.5987 66.5211 80.7427 67.1663 81.3112C67.7607 81.8959 68.0736 82.7092 68.0244 83.5417C68.0892 84.1208 67.9073 84.7008 67.5227 85.139Z" />
    <path d="M75.5347 80.5717C75.3133 80.4342 75.0562 80.3653 74.7956 80.3738C73.9998 80.448 73.2854 80.8931 72.8685 81.5749L72.8685 80.3738L72.5253 80.3738L70.255 81.0205L70.3342 81.2319C70.5196 81.1831 70.71 81.1565 70.9017 81.1527C71.0254 81.1477 71.1482 81.1749 71.2581 81.2319C71.3577 81.2827 71.43 81.3741 71.456 81.4825C71.4917 81.8514 71.4917 82.2226 71.456 82.5915L71.456 84.7033C71.4802 84.8872 71.4802 85.0735 71.456 85.2577C71.4084 85.3964 71.3023 85.5073 71.1657 85.5612C70.8954 85.6598 70.6085 85.7049 70.321 85.6933L70.321 85.8913L74.162 85.8913L74.162 85.6933C73.8983 85.7021 73.6352 85.6664 73.3834 85.5875C73.2343 85.5355 73.1022 85.4443 73.0004 85.3238C72.8883 85.118 72.8378 84.884 72.8554 84.6504L72.8554 82.0634C73.0539 81.7543 73.3092 81.4856 73.6077 81.2714C73.7029 81.2106 73.8119 81.1743 73.9246 81.1658C74.1125 81.1931 74.2929 81.2604 74.4523 81.3638C74.6471 81.485 74.8701 81.5533 75.0991 81.5617C75.2832 81.5658 75.4639 81.51 75.614 81.4036C75.7424 81.3177 75.8213 81.1749 75.825 81.0205C75.8116 80.831 75.702 80.6619 75.5347 80.5717Z" />
    <path d="M84.0616 85.1521C83.8703 85.2179 83.6698 85.2536 83.4675 85.2577C83.3607 85.2617 83.2552 85.2342 83.164 85.1784C83.0613 85.1127 82.9899 85.0078 82.9661 84.8881C82.9282 84.5107 82.9282 84.1305 82.9661 83.7528L82.9661 77.5889L82.5965 77.5889L80.3657 78.2488L80.4712 78.4467C80.6557 78.391 80.8464 78.3597 81.039 78.3543C81.1499 78.3493 81.2602 78.3766 81.3557 78.4336C81.4556 78.4962 81.5267 78.5958 81.5536 78.7107C81.5903 79.0838 81.5903 79.4596 81.5536 79.8326L81.5536 80.8226C81.0682 80.5066 80.496 80.3497 79.9169 80.3738C78.9457 80.3271 77.9958 80.6691 77.277 81.3243C76.6691 81.8386 76.3092 82.5874 76.287 83.3832C76.2735 84.1142 76.6124 84.807 77.1978 85.2445C77.8082 85.7322 78.5683 85.9934 79.3494 85.9837C79.7312 85.9846 80.1101 85.9223 80.4712 85.7989C80.8615 85.6655 81.227 85.4691 81.5536 85.2179L81.5536 86.0231L81.9232 86.0231L84.154 85.3632L84.0616 85.1521ZM81.5536 84.8483C81.1421 85.1813 80.631 85.367 80.1017 85.3764C79.5032 85.3638 78.9319 85.123 78.5047 84.7033C78.002 84.2467 77.7349 83.5859 77.7787 82.9081C77.7333 82.2323 78.0127 81.5755 78.531 81.1395C78.9003 80.8301 79.3694 80.6657 79.8511 80.6776C80.1239 80.6788 80.3939 80.7371 80.6429 80.8492C80.9015 80.945 81.1264 81.1151 81.2896 81.3375C81.4518 81.5442 81.5567 81.79 81.5934 82.0503L81.5536 84.8483Z" />
    <path d="M71.0915 49.7951C69.4779 51.4052 67.8039 54.0852 69.1857 57.0085L80.0418 75.2118L86 75.2118L71.0915 49.7951ZM65.6003 40.4549L68.497 45.4224L63.4399 54.7301L75.5216 75.2118L69.3129 75.2118L57.3108 54.8256L65.6003 40.4549ZM24.5404 71.0219L48.8255 71.0219C51.7871 71.4397 53.1097 73.4062 53.5356 75.2118L22 75.2465L24.5404 71.0219ZM30.1425 61.9569L27.2426 66.6726L53.5005 66.6726L58.5579 75.2118L64.0475 75.2118L56.2713 61.9626L30.1425 61.9569ZM35.7627 52.8165L46.8884 52.8165L60.1712 31.2157L63.1377 36.2415L49.995 57.6142L32.8268 57.5917L35.7627 52.8165ZM54.7533 21.98C54.7533 21.5597 38.5999 47.8988 38.5999 47.8988C41.2996 48.6987 44.1411 48.8111 46.159 45.438L57.6904 26.6112L54.7533 21.98Z" />
</svg>